# xmcd CD database file
#
# Track frame offsets:
#	150
#	19867
#	39310
#	58072
#	77580
#	95282
#	113260
#	131197
#	150477
#	166517
#	183645
#	202810
#	214302
#	228517
#	245222
#	259002
#	278040
#
# Disc length: 3937 seconds
#
# Revision: 0
# Processed by: cddbd v1.5.2PL0 Copyright (c) Steve Scherf et al.
# Submitted via: CDex 1.70beta3
#
DISCID=dd0f5f11
DTITLE=Various Artist - Profoundly Blue
DYEAR=1944
DGENRE=Jazz
TTITLE0=Jammin' In Four - Edmond Hall Celeste Quartet
TTITLE1=Edmond Hall Blues - Edmond Hall Celeste Quartet
TTITLE2=Profoundly Blue - Edmond Hall Celeste Quartet
TTITLE3=Profoundly Blue No.2 - Edmond Hall Celeste Quartet
TTITLE4=Celestial Express - Edmond Hall Celeste Quartet
TTITLE5=Rompin' In' 44 (Alternate Master) - Edmond Hall's All Star Quartet
TTITLE6=Rompin' In' 44 - Edmond Hall's All Star Quartet
TTITLE7=Blue Interval - Edmond Hall's All Star Quartet
TTITLE8=Smooth Sailing (Alternate Master) - Edmond Hall's All Star Quartet
TTITLE9=Smooth Sailing - Edmond Hall's All Star Quartet
TTITLE10=Seein' Red - Edmond Hall's All Star Quartet
TTITLE11=It's Been So Long (Alternate Master) - Edmond Hall Swingtet
TTITLE12=It's Been So Long - Edmond Hall Swingtet
TTITLE13=I Can't Believe That You're In Love With Me (Alternate Master) - Edmond Hall Swingtet
TTITLE14=I Can't Believe That You're In Love With Me - Edmond Hall Swingtet
TTITLE15=Big City Blues - Edmond Hall Swingtet
TTITLE16=Steamin' And Beamin' - Edmond Hall Swingtet
EXTD=YEAR: 1944
EXTT0=
EXTT1=
EXTT2=
EXTT3=
EXTT4=
EXTT5=
EXTT6=
EXTT7=
EXTT8=
EXTT9=
EXTT10=
EXTT11=
EXTT12=
EXTT13=
EXTT14=
EXTT15=
EXTT16=
PLAYORDER=
